<svg width="512" height="512" viewBox="0 0 512 512" fill="none" xmlns="http://www.w3.org/2000/svg">
<rect width="512" height="512" rx="87" fill="url(#paint0_linear_106_333)"/>
<path d="M456.191 152H379.745C379.745 175.285 379.745 175.285 379.745 175.285C422.531 176.46 433.375 211.571 433.448 228.98H456.191V152Z" fill="white"/>
<path d="M351.064 260.273H427.787C427.787 236.958 427.787 236.958 427.787 236.958C384.846 235.781 373.963 200.623 373.889 183.191H351.064V260.273Z" fill="white"/>
<path d="M56 197.573V152H237.071V197.573H174.408V360.334H118.663V197.573H56Z" fill="white"/>
<path d="M211.124 360.366H150.089L218.855 152.032H296.167L364.933 360.366H303.898L255.494 196.847H253.867L211.124 360.366ZM199.731 278.172H314.477V320.49H199.731V278.172Z" fill="white"/>
<defs>
<linearGradient id="paint0_linear_106_333" x1="107.825" y1="-2.54046e-05" x2="623.15" y2="165.127" gradientUnits="userSpaceOnUse">
<stop stop-color="#684FFF"/>
<stop offset="1" stop-color="#B871FE"/>
</linearGradient>
</defs>
</svg>
