<svg width="2548" height="892" viewBox="0 0 2548 892" fill="none" xmlns="http://www.w3.org/2000/svg">
<path d="M914 300.388V268.023H1042.75V300.388H998.194V415.977H958.556V300.388H914Z" fill="white"/>
<path d="M1057.89 415.977V268.023H1121.83C1132.82 268.023 1142.44 270.022 1150.69 274.019C1158.93 278.016 1165.35 283.772 1169.93 291.285C1174.51 298.798 1176.8 307.805 1176.8 318.304C1176.8 328.9 1174.44 337.834 1169.71 345.106C1165.03 352.379 1158.45 357.869 1149.96 361.578C1141.53 365.286 1131.66 367.141 1120.38 367.141H1082.19V335.932H1112.28C1117.01 335.932 1121.03 335.354 1124.36 334.198C1127.73 332.994 1130.31 331.091 1132.1 328.49C1133.93 325.89 1134.85 322.494 1134.85 318.304C1134.85 314.066 1133.93 310.622 1132.1 307.973C1130.31 305.276 1127.73 303.302 1124.36 302.049C1121.03 300.749 1117.01 300.099 1112.28 300.099H1098.1V415.977H1057.89ZM1144.68 348.068L1181.72 415.977H1138.03L1101.86 348.068H1144.68Z" fill="white"/>
<path d="M1234.16 268.023V415.977H1193.94V268.023H1234.16Z" fill="white"/>
<path d="M1253.22 415.977V268.023H1317.16C1328.15 268.023 1337.77 270.19 1346.02 274.525C1354.27 278.859 1360.68 284.952 1365.26 292.802C1369.84 300.653 1372.13 309.828 1372.13 320.327C1372.13 330.923 1369.77 340.098 1365.04 347.852C1360.37 355.606 1353.78 361.578 1345.3 365.768C1336.86 369.958 1327 372.053 1315.71 372.053H1277.52V340.844H1307.61C1312.34 340.844 1316.36 340.025 1319.69 338.388C1323.07 336.702 1325.65 334.318 1327.43 331.236C1329.26 328.153 1330.18 324.517 1330.18 320.327C1330.18 316.089 1329.26 312.477 1327.43 309.49C1325.65 306.456 1323.07 304.144 1319.69 302.555C1316.36 300.918 1312.34 300.099 1307.61 300.099H1293.44V415.977H1253.22Z" fill="white"/>
<path d="M1406.87 415.977H1363.47L1412.37 268.023H1467.34L1516.24 415.977H1472.84L1440.43 308.768H1439.27L1406.87 415.977ZM1398.77 357.605H1480.36V387.658H1398.77V357.605Z" fill="white"/>
<path d="M1587.5 415.977H1530.5V268.023H1586.92C1602.16 268.023 1615.32 270.985 1626.42 276.909C1637.55 282.785 1646.14 291.261 1652.17 302.338C1658.24 313.368 1661.28 326.588 1661.28 342C1661.28 357.412 1658.27 370.657 1652.24 381.734C1646.21 392.763 1637.67 401.24 1626.63 407.163C1615.59 413.039 1602.55 415.977 1587.5 415.977ZM1570.72 381.878H1586.05C1593.38 381.878 1599.63 380.698 1604.79 378.338C1610 375.978 1613.95 371.909 1616.65 366.129C1619.4 360.35 1620.77 352.307 1620.77 342C1620.77 331.693 1619.37 323.65 1616.58 317.871C1613.83 312.091 1609.78 308.022 1604.43 305.662C1599.12 303.302 1592.61 302.122 1584.9 302.122H1570.72V381.878Z" fill="white"/>
<path d="M1711.04 268.023L1741.42 372.342H1742.58L1772.96 268.023H1818.38L1769.49 415.977H1714.52L1665.62 268.023H1711.04Z" fill="white"/>
<path d="M1846.86 415.977H1803.47L1852.36 268.023H1907.33L1956.23 415.977H1912.83L1880.43 308.768H1879.27L1846.86 415.977ZM1838.76 357.605H1920.35V387.658H1838.76V357.605Z" fill="white"/>
<path d="M2098.67 268.023V415.977H2065.11L2011.58 338.243H2010.71V415.977H1970.5V268.023H2004.64L2057.3 345.468H2058.45V268.023H2098.67Z" fill="white"/>
<path d="M2255.99 323.506H2215.2C2214.91 320.134 2214.14 317.076 2212.88 314.331C2211.68 311.586 2209.99 309.226 2207.82 307.251C2205.7 305.228 2203.12 303.687 2200.08 302.627C2197.04 301.52 2193.59 300.966 2189.74 300.966C2182.99 300.966 2177.27 302.603 2172.59 305.878C2167.96 309.153 2164.44 313.849 2162.03 319.966C2159.67 326.082 2158.49 333.427 2158.49 342C2158.49 351.054 2159.69 358.64 2162.11 364.757C2164.56 370.825 2168.11 375.4 2172.74 378.483C2177.37 381.517 2182.94 383.034 2189.45 383.034C2193.16 383.034 2196.49 382.577 2199.43 381.662C2202.37 380.698 2204.93 379.326 2207.1 377.544C2209.27 375.762 2211.03 373.618 2212.38 371.114C2213.77 368.561 2214.72 365.696 2215.2 362.517L2255.99 362.806C2255.51 369.067 2253.75 375.449 2250.71 381.951C2247.67 388.404 2243.36 394.376 2237.76 399.867C2232.22 405.309 2225.35 409.692 2217.15 413.015C2208.95 416.338 2199.43 418 2188.58 418C2174.98 418 2162.78 415.086 2151.98 409.259C2141.23 403.431 2132.71 394.858 2126.45 383.54C2120.23 372.222 2117.12 358.375 2117.12 342C2117.12 325.529 2120.3 311.658 2126.66 300.388C2133.03 289.07 2141.61 280.521 2152.41 274.741C2163.21 268.914 2175.27 266 2188.58 266C2197.93 266 2206.54 267.276 2214.4 269.829C2222.26 272.381 2229.16 276.114 2235.09 281.027C2241.02 285.891 2245.79 291.887 2249.41 299.015C2253.03 306.143 2255.22 314.307 2255.99 323.506Z" fill="white"/>
<path d="M2274.24 415.977V268.023H2381V300.388H2314.45V325.817H2375.5V358.183H2314.45V383.612H2380.71V415.977H2274.24Z" fill="white"/>
<path d="M850.74 270.228H720.13C720.13 310.011 720.13 310.011 720.13 310.011C793.231 312.019 811.757 372.007 811.883 401.75H850.74V270.228Z" fill="white"/>
<path d="M671.126 455.217H802.211C802.211 415.381 802.211 415.381 802.211 415.381C728.844 413.37 710.251 353.302 710.125 323.519H671.126V455.217Z" fill="white"/>
<path d="M167 348.091V270.228H476.367V348.091H369.305V626.173H274.062V348.091H167Z" fill="white"/>
<path d="M432.035 626.228H327.754L445.244 270.282H577.333L694.823 626.228H590.542L507.843 346.851H505.062L432.035 626.228ZM412.569 485.796H608.618V558.098H412.569V485.796Z" fill="white"/>
<rect x="13" y="13" width="2522" height="866" rx="94" stroke="white" stroke-width="26"/>
</svg>
